<svg width="149" height="47" viewBox="0 0 149 47" fill="none" xmlns="http://www.w3.org/2000/svg">
<path d="M30.3947 16.0354C29.9027 16.3859 29.303 16.5706 28.6895 16.5606C28.0759 16.5507 27.4832 16.3466 27.0039 15.9804C26.3152 15.4209 25.5379 14.9696 24.7011 14.6431C23.5208 14.2041 22.266 13.9765 20.9995 13.9718C19.2703 13.948 17.5548 14.2685 15.9622 14.9128C14.4992 15.5219 13.1825 16.4116 12.0936 17.5267C11.003 18.6583 10.1526 19.9814 9.58937 21.4227C8.98901 22.953 8.68849 24.5759 8.70281 26.2102C8.68251 27.94 8.98265 29.6596 9.58937 31.2894C10.1391 32.7731 10.9902 34.1382 12.0936 35.3065C13.1789 36.4366 14.4957 37.3414 15.9622 37.9644C17.5497 38.6266 19.2676 38.9551 20.9995 38.9274C22.4703 38.923 23.9189 38.5835 25.225 37.9369C26.0661 37.5138 26.8412 36.9804 27.5278 36.3521C27.9985 35.9341 28.6062 35.6849 29.2474 35.6468C29.8886 35.6087 30.5239 35.784 31.0452 36.143L31.7303 36.6107C32.0751 36.8468 32.3596 37.1546 32.5623 37.5108C32.765 37.867 32.8806 38.2625 32.9005 38.6676C32.9205 39.0726 32.8442 39.4768 32.6774 39.8496C32.5106 40.2225 32.2577 40.5544 31.9375 40.8204C30.8692 41.7168 29.6611 42.4483 28.3568 42.9886C26.0099 43.9612 23.4768 44.4559 20.9189 44.4413C18.3213 44.461 15.7425 44.0188 13.3141 43.1371C11.0808 42.3434 9.04634 41.1112 7.34185 39.5198C5.63736 37.9284 4.30069 36.0132 3.41801 33.8978C2.44878 31.5762 1.96756 29.0948 2.00182 26.5954C1.96642 24.0388 2.44727 21.4996 3.41801 19.117C4.29851 16.97 5.63316 15.0198 7.33844 13.3885C9.04246 11.7861 11.0778 10.5416 13.3141 9.73457C15.7469 8.86537 18.3276 8.43619 20.9246 8.4689C23.2406 8.44854 25.5378 8.86751 27.6832 9.70155C28.8283 10.1631 29.903 10.7702 30.8783 11.5065C31.2123 11.7641 31.4802 12.0914 31.6613 12.4634C31.8424 12.8354 31.932 13.242 31.9231 13.6522C31.9142 14.0624 31.8071 14.4652 31.61 14.8297C31.4129 15.1941 31.1311 15.5106 30.7861 15.7547L30.3947 16.0354Z" fill="white" stroke="white" stroke-width="4" stroke-miterlimit="10"/>
<path d="M52.0061 14.522H46.7904C46.027 14.522 45.2949 14.2321 44.7551 13.7161C44.2152 13.2001 43.912 12.5003 43.912 11.7706C43.912 11.0408 44.2152 10.341 44.7551 9.82501C45.2949 9.30902 46.027 9.01913 46.7904 9.01913H69.3573C70.1207 9.01913 70.8529 9.30902 71.3927 9.82501C71.9325 10.341 72.2358 11.0408 72.2358 11.7706C72.2358 12.5003 71.9325 13.2001 71.3927 13.7161C70.8529 14.2321 70.1207 14.522 69.3573 14.522H64.1761C63.4127 14.522 62.6806 14.8119 62.1408 15.3279C61.601 15.8439 61.2977 16.5437 61.2977 17.2735V40.4956C61.2977 41.2253 60.9945 41.9252 60.4546 42.4412C59.9148 42.9572 59.1827 43.2471 58.4193 43.2471H57.8148C57.0514 43.2471 56.3193 42.9572 55.7795 42.4412C55.2396 41.9252 54.9364 41.2253 54.9364 40.4956V17.2735C54.9364 16.9079 54.8603 16.5461 54.7124 16.209C54.5645 15.8719 54.3479 15.5663 54.0751 15.3102C53.8023 15.054 53.4788 14.8524 53.1236 14.7171C52.7684 14.5817 52.3885 14.5154 52.0061 14.522Z" fill="white" stroke="white" stroke-width="4" stroke-miterlimit="10"/>
<path d="M111.134 43.2967H106.661C106.397 43.2973 106.138 43.2322 105.909 43.1077C105.68 42.9832 105.489 42.8036 105.354 42.5868L97.6228 29.7871C97.4903 29.5678 97.2998 29.3858 97.0704 29.2592C96.841 29.1327 96.5808 29.0661 96.316 29.0662H95.3603C94.9588 29.0662 94.5737 29.2187 94.2897 29.4901C94.0058 29.7615 93.8463 30.1296 93.8463 30.5135V41.7944C93.8463 42.1782 93.6867 42.5463 93.4028 42.8177C93.1189 43.0892 92.7338 43.2416 92.3322 43.2416H88.9817C88.5802 43.2416 88.1951 43.0892 87.9111 42.8177C87.6272 42.5463 87.4677 42.1782 87.4677 41.7944V25.2472C87.4684 25.056 87.5087 24.8667 87.5861 24.6904C87.6635 24.5141 87.7766 24.3541 87.9189 24.2196C88.0612 24.0851 88.2298 23.9789 88.4152 23.9068C88.6005 23.8348 88.7989 23.7985 88.999 23.8H91.1636C91.4349 23.8052 91.7027 23.7404 91.9387 23.6124C92.1747 23.4843 92.3702 23.2978 92.5046 23.0725C92.639 22.8471 92.7073 22.5912 92.7022 22.3319C92.6972 22.0725 92.6191 21.8193 92.4761 21.5988L85.9881 11.1433C85.8477 10.9233 85.7712 10.6715 85.7667 10.4138C85.7622 10.1561 85.8297 9.90187 85.9623 9.67748C86.095 9.45308 86.2879 9.26661 86.5212 9.13735C86.7544 9.00808 87.0196 8.9407 87.2892 8.94217H99.511C101.188 8.93692 102.861 9.09922 104.502 9.42642C106.002 9.7098 107.433 10.2585 108.722 11.0443C109.946 11.81 110.948 12.8586 111.635 14.0929C112.419 15.5896 112.793 17.2519 112.723 18.9244C112.808 20.7302 112.412 22.5271 111.572 24.1466C110.832 25.4137 109.743 26.4625 108.423 27.1787C107.822 27.5116 107.19 27.7898 106.534 28.0097C106.324 28.0805 106.132 28.1949 105.973 28.3446C105.814 28.4943 105.691 28.6756 105.614 28.8758C105.536 29.076 105.506 29.29 105.525 29.5027C105.543 29.7153 105.611 29.9214 105.723 30.1063L112.441 41.112C112.577 41.3321 112.65 41.5827 112.652 41.8384C112.654 42.0941 112.585 42.3458 112.453 42.5678C112.32 42.7898 112.128 42.9742 111.896 43.1022C111.665 43.2302 111.402 43.2973 111.134 43.2967ZM101.06 22.6774C101.242 22.9648 101.523 23.1832 101.854 23.2955C102.186 23.4078 102.548 23.4071 102.879 23.2937L103.236 23.1671C104.032 22.862 104.729 22.3608 105.256 21.7144C105.826 20.9184 106.101 19.9638 106.039 19.0014C106.088 18.1057 105.84 17.218 105.331 16.4646C104.864 15.8403 104.238 15.3403 103.512 15.0118C102.725 14.6627 101.883 14.4432 101.019 14.3625C100.146 14.2654 99.2676 14.2158 98.3884 14.2139C98.1193 14.2134 97.8549 14.2815 97.6224 14.4112C97.39 14.5409 97.1979 14.7274 97.0659 14.9517C96.934 15.1759 96.867 15.4297 96.8717 15.6869C96.8765 15.9441 96.9529 16.1955 97.0931 16.4151L101.06 22.6774Z" fill="white" stroke="white" stroke-width="4" stroke-miterlimit="10"/>
<path d="M128.325 9.14023H128.901C129.664 9.14023 130.396 9.43012 130.936 9.94611C131.476 10.4621 131.779 11.162 131.779 11.8917V35.1139C131.779 35.8436 132.082 36.5435 132.622 37.0595C133.162 37.5755 133.894 37.8653 134.657 37.8653H144.122C144.885 37.8653 145.617 38.1552 146.157 38.6712C146.697 39.1872 147 39.8871 147 40.6168C147 41.3465 146.697 42.0464 146.157 42.5624C145.617 43.0784 144.885 43.3682 144.122 43.3682H128.319C127.556 43.3682 126.824 43.0784 126.284 42.5624C125.744 42.0464 125.441 41.3465 125.441 40.6168V11.8972C125.44 11.5349 125.514 11.1761 125.659 10.8413C125.803 10.5065 126.016 10.2023 126.284 9.94611C126.552 9.68996 126.87 9.48691 127.22 9.34862C127.571 9.21032 127.946 9.13951 128.325 9.14023Z" fill="white" stroke="white" stroke-width="4" stroke-miterlimit="10"/>
<path d="M79.0751 7.2912C80.8524 7.2912 82.2932 5.91398 82.2932 4.21509C82.2932 2.5162 80.8524 1.13898 79.0751 1.13898C77.2977 1.13898 75.8569 2.5162 75.8569 4.21509C75.8569 5.91398 77.2977 7.2912 79.0751 7.2912Z" fill="#9B0021"/>
<path d="M29.9057 43.1251C32.5639 43.1251 34.7578 41.0597 34.7578 38.465C34.7578 35.8702 32.5639 33.8048 29.9057 33.8048C27.2474 33.8048 25.0535 35.8702 25.0535 38.465C25.0535 41.0597 27.2474 43.1251 29.9057 43.1251Z" fill="#9B0021" stroke="#9B0021"/>
<path d="M128.653 16.6893C131.343 16.6893 133.563 14.5993 133.563 11.9741C133.563 9.34899 131.343 7.25894 128.653 7.25894C125.963 7.25894 123.743 9.34899 123.743 11.9741C123.743 14.5993 125.963 16.6893 128.653 16.6893Z" fill="#9B0021" stroke="#9B0021"/>
<path d="M79.0748 8.43044C81.5102 8.43044 83.4845 6.54322 83.4845 4.21522C83.4845 1.88722 81.5102 0 79.0748 0C76.6394 0 74.665 1.88722 74.665 4.21522C74.665 6.54322 76.6394 8.43044 79.0748 8.43044Z" fill="#9B0021"/>
</svg>
