<svg width="30" height="32" viewBox="0 0 30 32" fill="none" xmlns="http://www.w3.org/2000/svg">
<path fill-rule="evenodd" clip-rule="evenodd" d="M27.4637 28H18.2708C18.2708 29.0609 17.8834 30.0783 17.1938 30.8284C16.5042 31.5786 15.5688 32 14.5936 32C13.6184 32 12.6831 31.5786 11.9935 30.8284C11.3038 30.0783 10.9164 29.0609 10.9164 28H1.72351C1.34643 27.9893 0.982397 27.8477 0.684655 27.5958C0.386913 27.3439 0.171095 26.9949 0.0687784 26.6C-0.0397357 26.2141 -0.0455183 25.8026 0.0521003 25.4132C0.149719 25.0239 0.346744 24.6726 0.620354 24.4C1.531 23.652 2.27036 22.6852 2.78066 21.575C3.29097 20.4648 3.55841 19.2413 3.56209 18V12C3.56209 8.8174 4.72434 5.76515 6.79315 3.51472C8.86196 1.26428 11.6679 0 14.5936 0C17.5193 0 20.3253 1.26428 22.3941 3.51472C24.4629 5.76515 25.6251 8.8174 25.6251 12V18C25.6288 19.2413 25.8962 20.4648 26.4065 21.575C26.9168 22.6852 27.6562 23.652 28.5669 24.4C28.866 24.6518 29.0816 25.0027 29.1811 25.3996C29.2806 25.7965 29.2586 26.2179 29.1184 26.6C29.0161 26.9949 28.8003 27.3439 28.5026 27.5958C28.2048 27.8477 27.8408 27.9893 27.4637 28Z" fill="#08165C"/>
</svg>
